<?xml version="1.0" standalone="no"?>
<!DOCTYPE svg PUBLIC "-//W3C//DTD SVG 20010904//EN"
 "http://www.w3.org/TR/2001/REC-SVG-20010904/DTD/svg10.dtd">
<svg version="1.0" xmlns="http://www.w3.org/2000/svg"
 width="1000.000000pt" height="1000.000000pt" viewBox="0 0 1000.000000 1000.000000"
 preserveAspectRatio="xMidYMid meet">

<g transform="translate(0.000000,1000.000000) scale(0.100000,-0.100000)"
fill="#000000" stroke="none">
<path d="M4820 7782 l-45 -4 -120 -244 c-66 -135 -121 -249 -123 -254 -4 -11
60 -13 93 -4 12 3 29 26 43 59 l24 53 136 7 c75 3 146 7 157 8 14 1 30 -13 54
-50 36 -56 39 -58 117 -45 l41 7 -154 235 c-84 129 -159 235 -166 236 -6 0
-32 -1 -57 -4z m75 -193 c31 -50 55 -92 53 -94 -6 -5 -208 -17 -208 -12 0 7
91 197 95 197 1 0 28 -41 60 -91z"/>
<path d="M5386 7753 c-13 -44 -99 -464 -95 -466 15 -12 462 -98 469 -91 5 5
11 25 15 45 l7 35 -179 38 c-98 21 -179 39 -181 41 -1 1 16 87 38 191 22 104
40 192 40 195 0 4 -13 9 -29 12 -16 3 -40 9 -54 12 -19 5 -26 2 -31 -12z"/>
<path d="M4078 7636 c-125 -45 -230 -84 -233 -88 -3 -3 31 -110 75 -236 l82
-230 92 32 c50 18 157 57 239 86 81 29 147 55 147 58 0 2 -5 22 -12 43 -9 33
-15 38 -32 33 -12 -4 -95 -33 -186 -65 -90 -32 -167 -55 -171 -51 -7 8 -40
104 -36 107 1 1 45 17 97 35 52 18 99 37 104 41 7 6 -6 56 -19 77 -1 1 -46
-14 -100 -33 -54 -20 -103 -34 -109 -32 -6 3 -18 25 -28 50 l-16 45 176 62
c98 34 181 66 185 70 7 6 -17 82 -25 79 -2 -1 -105 -38 -230 -83z"/>
<path d="M6047 7548 c-8 -18 -51 -120 -97 -226 -45 -106 -81 -194 -79 -195 2
-1 25 -12 52 -25 l47 -22 15 33 c9 17 53 120 99 227 l84 195 -47 22 c-60 28
-58 28 -74 -9z"/>
<path d="M3483 7353 c-123 -85 -343 -248 -343 -255 0 -6 256 -364 279 -391 7
-7 91 49 91 62 0 3 -22 38 -50 76 -54 75 -54 79 6 116 33 20 35 20 167 4 l134
-17 61 43 c34 24 62 47 62 52 0 4 -33 8 -72 8 -40 1 -104 4 -142 8 l-70 6 44
30 c51 35 72 77 58 114 -14 37 -96 149 -118 161 -31 17 -65 11 -107 -17z m67
-105 c12 -13 28 -35 36 -50 17 -33 19 -31 -122 -134 l-106 -77 -23 29 c-13 16
-31 41 -39 56 -17 27 -17 27 36 66 135 98 183 132 190 132 4 0 17 -10 28 -22z"/>
<path d="M6396 7327 c-23 -23 -52 -63 -65 -88 -22 -41 -23 -50 -12 -76 12 -29
92 -94 243 -199 32 -21 57 -43 58 -47 0 -18 -55 -87 -67 -82 -9 3 -229 158
-272 191 -2 2 4 15 13 28 16 25 16 25 -30 46 -26 11 -48 20 -51 20 -2 0 -13
-20 -24 -45 -18 -41 -18 -47 -5 -74 17 -33 320 -258 365 -271 41 -12 69 6 123
78 56 74 67 106 47 141 -12 21 -189 162 -281 223 l-23 15 29 42 c16 22 31 41
34 41 3 0 63 -41 133 -92 127 -91 128 -92 113 -115 -15 -23 -14 -24 31 -44 45
-20 47 -20 60 -2 26 34 29 73 8 102 -19 25 -150 126 -277 211 -76 52 -99 51
-150 -3z"/>
<path d="M4824 6990 c-404 -39 -779 -191 -1084 -437 -89 -72 -257 -243 -321
-328 -211 -275 -348 -604 -400 -960 -20 -132 -17 -446 5 -570 65 -369 205
-684 423 -955 72 -89 243 -257 328 -321 269 -206 579 -338 925 -395 129 -22
433 -25 565 -6 348 49 684 190 960 401 85 64 256 232 328 321 219 271 360 590
423 955 24 139 24 460 0 605 -56 343 -191 658 -395 925 -64 85 -232 256 -321
328 -208 168 -476 305 -736 377 -195 53 -500 79 -700 60z m373 -135 c292 -36
497 -101 724 -230 700 -397 1069 -1207 908 -1999 -185 -912 -1027 -1554 -1953
-1487 -327 23 -626 122 -891 295 -796 519 -1076 1539 -658 2395 125 255 334
503 575 682 360 266 856 398 1295 344z"/>
<path d="M4955 6820 c-9 -10 -106 -173 -215 -362 -112 -193 -204 -343 -212
-342 -7 1 -186 47 -396 104 -413 111 -427 113 -446 58 -7 -20 12 -104 94 -409
56 -211 103 -390 104 -397 1 -8 -146 -99 -342 -212 -189 -109 -353 -206 -363
-216 -24 -22 -24 -66 0 -88 10 -10 174 -107 363 -216 195 -112 343 -204 342
-212 -1 -7 -47 -186 -104 -397 -81 -302 -101 -390 -94 -410 19 -54 34 -52 446
59 210 57 389 103 396 104 8 1 100 -149 212 -342 109 -189 206 -352 215 -362
23 -25 67 -26 89 -1 10 10 107 174 216 363 158 273 202 342 217 340 10 -2 188
-49 396 -104 407 -109 422 -111 441 -57 7 21 -13 107 -94 410 -56 211 -103
390 -104 397 -1 8 148 100 342 212 189 109 352 206 362 215 27 24 25 67 -2 92
-13 11 -174 106 -358 212 -184 106 -338 196 -341 199 -4 4 40 180 97 392 57
212 104 397 104 412 0 30 -32 58 -65 58 -11 0 -193 -47 -405 -104 -212 -57
-388 -101 -392 -98 -3 4 -94 159 -202 345 -107 187 -202 348 -212 358 -22 25
-66 24 -89 -1z m99 -268 c27 -48 98 -171 158 -274 59 -103 108 -192 108 -196
0 -5 -72 -28 -161 -52 l-161 -42 -159 42 c-108 29 -159 47 -157 56 4 17 312
553 318 553 3 0 27 -39 54 -87z m-879 -478 c160 -43 292 -79 293 -80 2 -1 -35
-69 -83 -151 l-87 -148 -141 -82 c-78 -44 -145 -78 -148 -75 -6 6 -169 604
-169 619 0 3 10 3 23 0 12 -4 153 -41 312 -83z m1983 69 c-56 -212 -162 -609
-164 -611 -1 -2 -67 34 -147 80 l-145 83 -83 142 c-45 78 -82 145 -83 150 -1
7 576 169 613 172 8 1 12 -6 9 -16z m-1475 -205 c54 -13 60 -23 17 -32 -18 -3
-34 -15 -41 -29 -8 -19 -16 -22 -44 -19 -21 3 -43 -3 -61 -15 l-28 -18 28 45
c15 25 32 55 38 68 8 15 17 21 27 17 9 -4 37 -11 64 -17z m762 -63 l29 -50
-28 19 c-18 11 -41 16 -61 14 -28 -3 -36 0 -44 19 -7 14 -23 26 -42 30 -39 8
-27 18 41 36 62 15 54 20 105 -68z m-341 -50 l59 -17 -81 -81 -81 -81 -69 74
c-38 41 -70 79 -71 85 -3 13 116 45 154 40 17 -1 56 -11 89 -20z m-204 -270
c0 -6 -19 -30 -43 -53 -42 -42 -44 -42 -115 -42 l-72 0 0 167 0 168 115 -115
c63 -63 115 -119 115 -125z m430 70 l0 -165 -72 0 c-71 0 -73 0 -115 42 -24
23 -43 47 -43 52 0 9 219 236 227 236 2 0 3 -74 3 -165z m-790 -55 l0 -110
-111 0 -111 0 32 58 c18 31 40 65 48 75 13 14 128 86 140 87 1 0 2 -49 2 -110z
m1051 36 c13 -10 89 -131 89 -142 0 -2 -49 -4 -110 -4 l-110 0 0 111 0 110 58
-32 c32 -17 65 -37 73 -43z m-1431 -155 c0 -6 -5 -13 -11 -17 -6 -3 -9 -24 -7
-45 3 -32 0 -40 -20 -48 -13 -7 -25 -23 -28 -41 -10 -45 -19 -37 -35 33 l-15
62 51 32 c54 34 65 38 65 24z m1746 -25 l51 -29 -16 -64 c-14 -60 -31 -84 -31
-44 0 11 -12 30 -27 43 -22 18 -27 30 -25 55 2 18 -2 42 -8 54 -14 24 -13 24
56 -15z m-1366 -168 c0 -71 0 -73 -42 -115 -23 -24 -47 -43 -53 -43 -6 0 -62
52 -125 115 l-115 115 168 0 167 0 0 -72z m692 -25 l98 -98 0 -135 0 -135 -97
-97 -98 -98 -135 0 -135 0 -97 97 -98 98 0 135 0 135 97 97 98 98 135 0 135 0
97 -97z m448 -18 c-63 -63 -119 -115 -125 -115 -6 0 -30 19 -53 43 -42 42 -42
44 -42 115 l0 72 167 0 168 0 -115 -115z m-1710 -55 l43 -160 -44 -164 -44
-165 -282 162 c-155 89 -282 164 -282 167 0 7 541 318 555 319 6 1 30 -71 54
-159z m2399 0 c149 -85 270 -157 270 -160 0 -7 -544 -320 -556 -320 -5 0 -29
72 -52 159 l-43 159 43 162 c28 107 47 160 55 158 7 -2 134 -73 283 -158z
m-2094 -240 c-43 -43 -81 -78 -83 -76 -2 3 -12 39 -23 80 -16 63 -18 84 -9
119 6 23 16 60 21 81 l11 39 81 -81 82 -82 -80 -80z m1556 158 c18 -69 18 -76
3 -143 -9 -38 -20 -76 -23 -82 -4 -8 -34 15 -86 67 l-80 80 80 80 c43 44 81
78 83 76 2 -2 12 -37 23 -78z m-1333 -221 c42 -42 42 -44 42 -115 l0 -72 -167
0 -168 0 115 115 c63 63 119 115 125 115 6 0 30 -19 53 -43z m1182 -72 l115
-115 -168 0 -167 0 0 67 c0 67 0 68 47 115 26 26 50 48 53 48 3 0 57 -52 120
-115z m-1555 -127 c16 -7 20 -16 17 -43 -2 -21 3 -43 15 -61 l18 -29 -50 29
c-27 16 -57 34 -66 39 -15 9 -15 15 -2 66 20 75 26 82 37 42 5 -18 19 -37 31
-43z m1816 8 c14 -57 14 -64 0 -73 -9 -5 -38 -22 -65 -38 l-49 -29 18 27 c11
17 16 39 13 62 -2 19 -1 35 4 35 14 0 48 44 48 62 0 39 17 15 31 -46z m-1401
-236 c0 -60 -2 -110 -4 -110 -2 0 -35 18 -73 40 -61 35 -72 47 -106 110 l-38
70 110 0 111 0 0 -110z m317 68 c24 -23 43 -47 43 -53 0 -6 -52 -62 -115 -125
l-115 -115 0 168 0 167 72 0 c71 0 73 0 115 -42z m473 -125 l0 -168 -115 115
c-63 63 -115 119 -115 125 0 5 21 29 47 52 46 41 51 42 116 43 l67 0 0 -167z
m350 163 c0 -2 -18 -34 -39 -71 -33 -56 -51 -74 -103 -106 -35 -21 -66 -38
-70 -39 -5 0 -8 50 -8 110 l0 110 110 0 c61 0 110 -2 110 -4z m-1473 -179 l92
-52 86 -148 c48 -82 85 -150 83 -151 -10 -7 -621 -166 -624 -163 -4 3 147 578
161 615 3 9 19 4 57 -18 29 -17 94 -54 145 -83z m1872 -206 c45 -167 80 -305
78 -307 -5 -5 -610 156 -618 165 -4 3 31 71 78 151 l85 145 141 82 c78 44 145
78 149 75 3 -4 43 -144 87 -311z m-995 120 l78 -79 -53 -15 c-97 -28 -105 -29
-170 -12 -35 9 -70 18 -77 20 -9 3 13 34 60 85 40 44 75 80 78 80 3 0 41 -36
84 -79z m-469 -129 c28 3 36 0 44 -19 7 -14 23 -26 41 -29 43 -9 37 -19 -17
-32 -27 -6 -55 -13 -64 -17 -10 -4 -19 2 -27 17 -6 13 -23 43 -38 68 l-28 45
28 -18 c18 -12 40 -18 61 -15z m837 -4 c-10 -18 -27 -47 -37 -64 l-18 -31 -56
14 c-68 18 -81 28 -44 36 16 3 35 16 42 29 10 19 18 23 46 20 20 -2 43 2 57
12 31 22 32 21 10 -16z m-289 -169 c86 -23 157 -46 157 -51 0 -12 -313 -557
-320 -557 -6 0 -314 536 -318 553 -2 9 46 26 145 54 81 22 155 41 163 41 8 1
86 -17 173 -40z"/>
<path d="M2884 3714 c-55 -38 -181 -140 -231 -188 -32 -30 -43 -48 -43 -71 0
-36 5 -44 134 -205 151 -188 183 -220 220 -220 37 0 48 7 186 118 136 109 150
125 150 167 0 30 -21 61 -141 210 -78 97 -153 184 -167 195 -33 27 -62 25
-108 -6z m201 -238 c59 -74 106 -138 104 -143 -3 -7 -201 -171 -226 -186 -16
-10 -249 281 -235 295 6 6 60 50 119 98 70 57 112 84 119 79 6 -5 60 -70 119
-143z"/>
<path d="M6875 3576 l-36 -44 106 -254 c59 -139 109 -256 113 -260 4 -3 22 13
40 37 32 43 33 44 17 74 -40 78 -42 69 62 203 52 68 98 122 102 121 3 0 31 -4
61 -8 l56 -7 37 48 c20 26 35 49 33 51 -1 2 -115 19 -252 38 -137 19 -261 37
-276 39 -23 5 -33 -2 -63 -38z m180 -82 c50 -8 96 -17 103 -20 8 -2 -9 -32
-49 -84 -34 -44 -65 -80 -69 -80 -3 0 -18 28 -32 63 -15 34 -34 79 -42 100 -9
20 -13 37 -9 37 5 0 49 -7 98 -16z"/>
<path d="M6545 3213 c-35 -19 -363 -252 -369 -262 -4 -6 248 -369 274 -395 5
-5 27 5 53 24 l46 32 -49 67 c-27 37 -50 72 -52 78 -2 6 16 25 38 41 l42 30
133 -18 134 -19 69 47 69 47 -64 6 c-35 4 -93 7 -129 8 -87 2 -102 12 -57 40
48 29 70 66 63 103 -5 27 -81 143 -109 166 -23 20 -62 22 -92 5z m60 -145 c20
-31 25 -46 18 -57 -12 -19 -214 -169 -229 -170 -9 -1 -71 79 -77 99 -3 12 222
170 243 170 10 0 30 -19 45 -42z"/>
<path d="M3345 2987 c-74 -112 -135 -206 -135 -209 0 -7 321 -218 367 -242 66
-33 106 -20 152 52 33 53 39 96 17 128 -13 19 -12 20 20 16 40 -5 57 7 96 67
34 55 36 100 6 128 -13 11 -105 75 -206 142 l-182 121 -135 -203z m431 -102
c8 -19 -33 -85 -52 -85 -18 0 -254 152 -254 163 0 5 14 28 30 53 l31 44 120
-81 c66 -44 123 -86 125 -94z m-229 -76 c68 -45 123 -89 123 -97 0 -26 -41
-82 -61 -82 -14 0 -230 130 -257 155 -4 4 61 105 68 105 2 0 60 -37 127 -81z"/>
<path d="M5940 2843 c-25 -9 -46 -17 -47 -18 -2 -1 24 -82 57 -180 33 -99 60
-185 60 -192 0 -7 -66 -34 -152 -62 l-153 -50 -62 186 c-34 102 -64 188 -67
190 -9 10 -107 -29 -103 -41 2 -6 32 -98 67 -203 50 -156 67 -197 88 -214 35
-27 45 -25 268 47 189 61 234 88 234 136 -1 31 -126 412 -137 414 -4 1 -28 -5
-53 -13z"/>
<path d="M4080 2778 c-11 -12 -27 -45 -35 -73 -45 -151 -39 -158 190 -226 94
-28 171 -52 173 -54 2 -1 -3 -25 -11 -51 -11 -36 -19 -49 -32 -47 -10 1 -85
21 -167 45 -148 43 -149 43 -144 70 6 30 -7 38 -59 38 -40 0 -46 -7 -48 -60
-2 -63 18 -75 219 -136 267 -81 287 -78 324 46 26 89 26 134 -2 160 -20 19
-49 29 -275 95 l-91 28 13 44 c8 25 16 47 19 50 2 3 73 -15 156 -39 150 -43
151 -43 146 -69 -5 -25 -2 -27 41 -33 26 -3 51 -2 56 3 4 4 7 28 5 51 -2 32
-9 48 -29 62 -31 23 -349 118 -395 118 -21 0 -41 -8 -54 -22z"/>
<path d="M4830 2650 c-68 -17 -72 -30 -68 -247 4 -255 -13 -237 226 -241 210
-4 256 1 288 33 20 20 24 34 24 84 0 65 1 63 -72 77 l-38 6 0 -49 0 -50 -151
-7 c-83 -4 -154 -4 -158 -1 -3 4 -8 76 -9 161 l-4 154 156 0 156 0 0 -46 0
-46 53 7 c28 4 56 10 61 13 16 9 -2 114 -24 136 -19 20 -33 21 -213 23 -105 1
-208 -2 -227 -7z"/>
</g>
</svg>
